<svg xmlns="http://www.w3.org/2000/svg" xml:space="preserve" width="1270" height="650" version="1.0">
  <g fill-rule="evenodd">
    <path fill="#C2CFB2" d="m224.6 551.3-19.5-5.5-4-4.6-4-4.6-4-4.6-3.9-4.6-19.8 5.3-12.7-7.7 4.4-13.4-17.7-17.8-15.5 17.2-7.8 3.4-11.8 13.6-12.2.2-8-18.3 8.9-5.1 3.3-20 9-22.6 4.6-20.5-1.2-11 38.3-27 4.6-7.2 4.7-7.3-2.6-7.9-2.5-7.9 2.5-10.6 9.8 2.6 26.6-5.5 35.9 6.6-2.9 6.1 3 5.5 15.2 21.2 24.2-3.8 12.3-4.5 3 7.5 32.1-11.1-.5-5.9-.6-5.8 28.6-8.4 6.8-13.4 37.3-.2 33.7-7.7 21.4-.7-.2-17.5 10-10.6 1.7 13.5 31-2.4 20.3 14.8 16.3 9.9 6.4 25.8-7.6 4.3-5.2 10.2L495 402l-1 14-63.8 11.8.6 17 5.9 30.7-6.7 7.2-21.8 5.2-31.1 11-41.3-.4-11.8-3.9-7 11.4-11.7-9-35.3 14.4-19.4 39.4-26 .5z"/>
    <path fill="#f38" d="M714.2 513.9 695 487.5l-39.8-10-33-.8-4.3 10.3-27.4 5-23.5-13.5-39.9-11.4-12-1.8-21.7-4.7-13.2.5-8.1 7.7-10.7 7.9-24.7-1.2-5.9-30.7-.6-17L494 416l1-14 21.3-8.7 5.2-10.2 7.6-4.3-6.4-25.8-14.198-8.623L510 340.2l6.8-7.3 10.8-1.6 9.6 4 5.7 7.9-1.3 10.4 28.2 25 9.3 3.7 10.3-24.2 8-21.3-6-12.7-20.3-3.7-3-5 14-24.4-4.5-13-17.6-22.4-.7-5.4 8.7-6 15 1 12.3 7 20.5 4.4 11.4-9.1 13.8 9.7-2.6 7-14.8-5.9 3.8 34 32.3 7.6 5.6 4.7-11.5 5.9-3.2 5.3 6.6 7.4 9.5-1.9 3.3 6.4-5.2 20.7-5 10.9 4 10.7 13.5 13.1 2.1 42 9 6.6 11.8 1.5 14-4.3 8.3 12.4 20.7 23.9-14.5 2.4 1.4 12.8z"/>
    <path fill="#C2CFB2" d="m511.2 585-22.9-7.4-12.1-20.7-12.3-12.6-1.6-16.7-13.6-6.8-7-9.5-2.7-18.2 16.2-11.2 6.2-5.2 18.8-15.6 13.2-.5 21.7 4.7 12 1.8 2.2 12 10.2 11.4-3.6 12.3 12.2 17 5.3 16.3 16.9 13.7-33.7 13.2-10.444 20.319-6.956 1.581Z"/>
    <path fill="#DDD1C7" d="m706.1 372.5-10.2 9.3-18.6 1.3-13.5-13.1-4-10.7 5-10.9 5.2-20.7-3.3-6.4-9.5 1.9-6.6-7.4 3.2-5.3 11.5-5.9-5.6-4.7-32.3-7.6-3.8-34 14.8 5.9 2.6-7-13.8-9.7-11.4 9.1-20.5-4.4-12.3-7-15-1-8.7 6-19.3-22.9 31.8-26.2 47-20.8 32.9-29.6 6-37.3 9.4-3.8 32.9 15.3 19.7-60.1 10.5 5.9L748.5 83l-3.6 9.2 56.5 25.7L824 98.7l30.2 10.4 10-1.3 32 13.3-8.5 7.1 1.6 12 6 4 5.8.3 5.5 42-35.4 20-46.9-9 1.1 47.4 47 26.3-7.9 37.1-21.2 9-50.2 29.9-11.4-10.6-27.9 8.5-.3-13.9-13.3-10-19.8-4.4-16.7 8.3L695 339z"/>
    <path fill="#f38" d="m1104.3 391.7-8.6-22.3-21.7-.2-20-13.7-10.4-17.4-20.8-18.3-40.2-18.7-10-7-26.5 17.6-29.3 2.3-16.3 8.8-36-14.5 7.9-37.1-47-26.3-1.1-47.4 46.9 9 35.4-20-5.5-42-5.8-.3-6-4-1.6-12 8.5-7.1-32-13.3 1.9-24 11.3-7.6 6-15.2 16.8 6.6 3.6-9.3-1.1-13.9L906.8 6l21.4 1.7 5.4 16.1 19.5-5.6 5.3-7.4 9.1 2.5 32 16.7 48.6 9 48.2 29 42.7-3 7.4-15.7 30.7 6 4 11 35.7 3.7 7.3 35.8-12 25.6-3 21.6 18.1 19.8 5.8 26.3 15.6 11-1.7 9.1-6.9-2.3-4.8 8.3.5 6.6-15.6-4.7-37.6 31-20.4-1-21.3 18.8-1.5 12-15.5 7.2 4.8 27.6 9.3 9.7-5.5 34.8zm55.8-185.1 9-1.6-5-9.5-.5-20.3-17.5-7.6-6.2 3.3-5.6.3-14.5 9.2-8.2 3.8-1.8 8 2.6 18 17 1.8 10.2 1.1z"/>
    <path fill="#7E8987" d="m1109.8 192.2 1.8-8 8.2-3.8 14.5-9.2 5.6-.3 6.2-3.3 17.5 7.6.5 20.3 5 9.5-9 1.6-20.5 6.5-27.2-2.9z"/>
    <path fill="#C2CFB2" d="m923.8 571.5-6.7-27.4 2.7-20.8-23.2-31.7-47.6 4.3-22.2-5-17.4 11-5.8-8-24.9-13.8-30.9 17.3-9.3 11-24.3 5.5 15.9-33.5-1.4-12.8 14.5-2.4-20.7-23.9-8.3-12.4-14 4.3-11.8-1.5-9-6.6-2.1-42 18.6-1.3 10.2-9.3-6.6-18.9L695 339l8.7-13.9 16.7-8.3 19.8 4.4 13.3 10 .3 13.9 27.9-8.5 11.4 10.6 17.2-11 33-18.9 21.2-9 36 14.5 16.3-8.8 29.3-2.3 26.5-17.6 10 7 15.3 7 24.9 11.7 20.8 18.3 10.4 17.4 20 13.7 21.7.2 8.6 22.3-15.8 9.2-5 6.8 4.6 11.6 9.1 38.7-2.5 9 6 32.2-2 9.1-8.1 7.8-1 6.3-.7 40.3 5.2 9-27.3-8.5-45 7.4-14 15.5h-8.9l-42.6-3.7-24.4-2.2z"/>
    <path fill="#7E8987" d="m848.7 645.8-19.7-7.5-34.2-.8-22-4-27.3-12-37.2-4-23.6-6-23.8-5.3-31.7 2.2-39-9.4-34.4-4.2-28-14.7 8.8-17.1 33.7-13.2-16.9-13.7-5.3-16.3-12.2-17 3.6-12.3-10.2-11.4-2.2-12 39.9 11.4 23.5 13.5 27.4-5 4.3-10.3 33 .8 39.8 10 19.2 26.4 24.3-5.5 9.3-11 30.9-17.3 24.9 13.8 5.8 8 17.4-11 22.2 5 47.6-4.3 23.2 31.7-2.7 20.8 6.7 27.4 8.1 8.7-25.2 9.3-22 27.2-18.8 14.9-17.6 7.4z"/>
    <path fill="#DDD1C7" d="m1090.6 516.1 8.1-7.8 2-9.1-6-32.2 2.5-9-9.1-38.7-4.6-11.6 5-6.8 15.8-9.2 28.1-24.5 5.5-34.8-9.3-9.7-4.8-27.6 15.5-7.2 1.5-12 21.3-18.8 20.4 1 37.6-31 15.6 4.7-.5-6.6 4.8-8.3 6.9 2.3 4.6-3.4 2.9 18.2 12.9 1-10.8 24.3-10.7 22.8 9.7 9.9 1.2 17.6-11.1 4.4-19.8 1.5-14.5 5.8-18-14.5-27.7 6-12.5 8.9.5 9.4 37.8 9.1 2.1 24-10.3 18.1-13.9 11.1-11.6 1.5-.2 13.8 4.8 12.5-8.2 12.8 2.9 17.2 9 9.3-3.7 10.2 3.4 7-4.7 4.7 1.7 6.6-8.9-.7-16.1.4-11 7.6-19.6 27-12 7.6-5.5-8.5zM88.5 524.1l-4-5.3-13.2-2.6-7.3-4.8-4-8.3 2.6-9.5-1.2-4.1-8.7 1.1-19.6-7.7-15-2.7 3.7-9.4-1.4-10.4-8-7.4-2.4-13.3-4-19.6 11.5-13.3.6-5.7 7.9-2.3 3.2-9-1-8-9.5-5.9-2.4-8 14.4.2 9.4-7.2 6-11.1 6.6 1.4.3 8.3 10.6 1.3 13.4 3.7v2.6l4.3 8.9 6-.5 9.2 10.5-2 12.8 4.3 7.4 8.4-2 4.5-2.5 7.7 1.6-4.5 10.1-2.4 9 .2 8.3 1.2 11-4.6 20.5-9 22.6-3.3 20-8.9 5.1 6.709 15.347L92.2 527Z"/>
  </g>
</svg>
